<?xml version="1.0" encoding="UTF-8" standalone="no"?>
<!-- Custom Bat-Signal for Raindrop Tests -->
<svg width="100%" height="100%" viewBox="0 0 581 365" version="1.1" xmlns="http://www.w3.org/2000/svg" xmlns:xlink="http://www.w3.org/1999/xlink" xml:space="preserve" xmlns:serif="http://www.serif.com/" style="fill-rule:evenodd;clip-rule:evenodd;stroke-linecap:round;stroke-linejoin:round;stroke-miterlimit:1.5;">
    <path id="OuterEllipse" d="
      M 289,352
      C -56,352 -94,23 291,22
      C 675,22 636,352 289,352
      Z" style="fill:black;stroke:none;stroke-width:0px;"/>
    <path id="InnerEllipse" d="
      M 290,335
      C -30,335 -66,40 290,40
      C 647,40 611,335 290,335
      Z" style="fill:rgb(251,198,6);stroke:none;stroke-width:0px;"/>
    <path id="Bat" d="
      M 290,319
      C 277,248 232,197 201,257
      C 172,185 96,218 162,291
      C 22,244 11,98 194,66
      C 134,136 264,207 261,52
      L 273,73
      L 308,73
      L 320,52
      C 317,207 447,136 387,66
      C 570,98 559,244 419,291
      C 485,218 409,185 380,257
      C 349,197 304,248 290,319
      Z" style="fill:black;stroke:none;stroke-width:0px;"/>
</svg>
